<mxfile host="Electron" modified="2020-07-15T09:02:03.759Z" agent="Mozilla/5.0 (X11; Linux x86_64) AppleWebKit/537.36 (KHTML, like Gecko) draw.io/12.1.0 Chrome/76.0.3809.139 Electron/6.0.7 Safari/537.36" etag="JodUP_GG53pOW3EeQXXq" version="12.1.0" type="device" pages="3"><diagram id="7zDVnnWjsR-BoNhKVwcQ" name="Page-1">7Vxbc+I2FP41vHSGDL4Cj4Fk03aSdhuaZrMvO4qtYG2M5cpygP31lYyEL7LBZAGT4hlmsI51Pd93dHQkQccYzxY3BITeHXah39F77qJjXHV0XbMHGvvikqWUWMOVZEqQK2SpYIJ+QCHsCWmMXBjlMlKMfYrCvNDBQQAdmpMBQvA8n+0F+/lWQzCFimDiAF+VPiKXeivpQO+n8l8hmnqyZc0W45sBmVmMJPKAi+cZkXHdMcYEY7p6mi3G0Ofak3pZlftU8XbdMQIDWqcA6jpx/3f09vrVe9AenfnVt3u3a4q+0aUcMHTZ+EUywAH7GhEcBy7k1fRYChPq4SkOgH+LcciEGhN+h5QuBXogppiJPDrzxVu4QPQLL35hidSTqIw/Xy2yiaVMBO4lx48ln33svK5En5DviwwvOKCiRY0pc6TqQ6gowjFx4AYl6IJXgEyhKPr9Es+v9Yc/7r789nR3aSJsg6gr6uMayjQgtH0D8QxSsmQZCPQBRW95BgFBxOk6X4oVexBw7QCd6PUb8GPR0j2MKIgJYOPXe3/OA0gUdDOg1NbfGyQULjaOWLxdW62wdr0n0vPUdDSZx8uYjdU7kJKslt9u1/iQ/DYUfo9xROPZ0VltDE+N1bKxClqnDL5OpftjuZbl+JrxW1kujG0PJN9E3u0kN06K5ZrWJJS9Dw3lsCkkN/U6M189RCVzVTRHMx8k+ks0Jt5wDToe8t1bsMQxHzXz5c6rTI08TNAPlh9ICNlrIvWt27w2BsUY+5ikAKWFJrwy0QyBESv2WQKjFUR3YJHLeAsiKjuIfR+EEXpOuswLzhhGKBhhSvFMZNrHOqIw45olE65ZMuH2BwfCVl1rdXQ20F4AZix9yZ4mlKBg2hnrnUt1cmbDpglkBL/CAkYlsAEfTQOW9OELL8b1hlhEcinElBv5KAqBw1q8TfJcmankXuiDizAr++InNush14VBMnlQQMHzmnUhRgFNFGaN2If1fsynAot1fMzSWppmH56d0DEO2FgASgCGjB9zyDlSAv1GS9nOB+lx7Xr4y3x7x19di6zwD0EUzTFxcxxo0d8v+pZ+PPRLfbTdqIu+0HcJKth4M5EITz7JCnkiLZakju/bLdW3b4puT2SV1m+WAf1zZMBprdMHbcRVA8iPEHEN24DrvUieVsBlKYuy7AZoG3btHnb1zXzYJU9vtq28tJ55IIztuoFXu+jeuOi2anPhVEKufgXyLowcgkKKcNAS4IAEOGbUVdrjQQUBQoIcYfuoZKJvcf853OUeWmO4DxXcx4guW4f+DofeNQonV3ZNcA/n0OXRVevRf9Kwh7XJcCoeXR51KdDzYIHGroDfxTHXawv/fuFv3J9rVYcoPg6mLf6Hxr9xv66VXOiIUYQCFevWt2/37ZZd8O2DmoekciLYP8BmhYHTZdi69l1OyIzaZGjAt5dfY1Gx711c/FKFdGZndFfQHaY7SEpgnzEAk83auYconDCweZtzAsJOcQP3EFcfTStnjrZqjaWAHOyKmLp/cmaAFGIfS2saETWwPS9ETKsYjTaMiK7GouptvP8tHAU0zKbtQ1fDw/NFo+zK23HRUKM17axmK72wvl7PXo0hosZPZ2Qfa72ejPM49xVv8WcRzRuIelh8XoiYZh6Rxk3k3GMQuwCI3riJqIeqZ+RDinAYjS+yzj4k1PO7JtYREVl+6/51Q746y3+vnh7RozXxtH9Kf+hRAEO9lpfBJa+xzGXcfu42bnr/tuI27nsuf696Wricd+Af05Wjm0HPKkFPympfExQtfMbJhY+q023bLrBiNUxRKiWGUlFhaWlrhXpWalDqYSwAy0w2sVFc2V+jQHZ5Fl7VLaMQE27NP9xYP3tY9Ti1jjVk7zcYNSipOYMlByeV2+x8J53foo3EfNPZbdf/7+RabtdcW4UyJZXYRfUs1csDUbJTYhxzknp35PGBdL4+zjq4zlky/ROOlVmk/2ViXP8H</diagram><diagram id="j9z_PGVBzaC0-V9ysHHA" name="Page-2">&#xa;    <mxGraphModel dx="2357" dy="1263" grid="1" gridSize="10" guides="1" tooltips="1" connect="1" arrows="1" fold="1" page="1" pageScale="1" pageWidth="827" pageHeight="1169" math="0" shadow="0">&#xa;      <root>&#xa;        <mxCell id="5zPHV9qzRJgmZAfULTGl-0"/>&#xa;        <mxCell id="5zPHV9qzRJgmZAfULTGl-1" parent="5zPHV9qzRJgmZAfULTGl-0"/>&#xa;        <mxCell id="0Nx5tK7zfX6LpTETbN9F-27" style="edgeStyle=none;rounded=0;orthogonalLoop=1;jettySize=auto;html=1;endArrow=none;endFill=0;strokeWidth=2;" edge="1" parent="5zPHV9qzRJgmZAfULTGl-1" source="5zPHV9qzRJgmZAfULTGl-3" target="5zPHV9qzRJgmZAfULTGl-10">&#xa;          <mxGeometry relative="1" as="geometry"/>&#xa;        </mxCell>&#xa;        <mxCell id="0Nx5tK7zfX6LpTETbN9F-37" style="edgeStyle=none;rounded=0;orthogonalLoop=1;jettySize=auto;html=1;endArrow=block;endFill=0;strokeWidth=1;endSize=12;" edge="1" parent="5zPHV9qzRJgmZAfULTGl-1" source="5zPHV9qzRJgmZAfULTGl-3" target="5zPHV9qzRJgmZAfULTGl-4">&#xa;          <mxGeometry relative="1" as="geometry"/>&#xa;        </mxCell>&#xa;        <mxCell id="5zPHV9qzRJgmZAfULTGl-3" value="Restaurant&lt;br&gt;Owner" style="shape=umlActor;verticalLabelPosition=bottom;labelBackgroundColor=#ffffff;verticalAlign=top;html=1;" parent="5zPHV9qzRJgmZAfULTGl-1" vertex="1">&#xa;          <mxGeometry x="30" y="310" width="30" height="60" as="geometry"/>&#xa;        </mxCell>&#xa;        <mxCell id="0Nx5tK7zfX6LpTETbN9F-28" style="edgeStyle=none;rounded=0;orthogonalLoop=1;jettySize=auto;html=1;endArrow=none;endFill=0;strokeWidth=2;" edge="1" parent="5zPHV9qzRJgmZAfULTGl-1" source="5zPHV9qzRJgmZAfULTGl-4" target="qz7VxkIkBpoKN-4RH5xL-10">&#xa;          <mxGeometry relative="1" as="geometry"/>&#xa;        </mxCell>&#xa;        <mxCell id="0Nx5tK7zfX6LpTETbN9F-29" style="edgeStyle=none;rounded=0;orthogonalLoop=1;jettySize=auto;html=1;endArrow=none;endFill=0;strokeWidth=2;" edge="1" parent="5zPHV9qzRJgmZAfULTGl-1" source="5zPHV9qzRJgmZAfULTGl-4" target="5zPHV9qzRJgmZAfULTGl-11">&#xa;          <mxGeometry relative="1" as="geometry"/>&#xa;        </mxCell>&#xa;        <mxCell id="0Nx5tK7zfX6LpTETbN9F-30" style="edgeStyle=none;rounded=0;orthogonalLoop=1;jettySize=auto;html=1;endArrow=none;endFill=0;strokeWidth=2;" edge="1" parent="5zPHV9qzRJgmZAfULTGl-1" source="5zPHV9qzRJgmZAfULTGl-4" target="5zPHV9qzRJgmZAfULTGl-12">&#xa;          <mxGeometry relative="1" as="geometry"/>&#xa;        </mxCell>&#xa;        <mxCell id="0Nx5tK7zfX6LpTETbN9F-31" style="edgeStyle=none;rounded=0;orthogonalLoop=1;jettySize=auto;html=1;endArrow=none;endFill=0;strokeWidth=2;" edge="1" parent="5zPHV9qzRJgmZAfULTGl-1" source="5zPHV9qzRJgmZAfULTGl-4" target="Tm_T-q_GC3cHI-UwzK1D-0">&#xa;          <mxGeometry relative="1" as="geometry"/>&#xa;        </mxCell>&#xa;        <mxCell id="0Nx5tK7zfX6LpTETbN9F-32" style="edgeStyle=none;rounded=0;orthogonalLoop=1;jettySize=auto;html=1;endArrow=none;endFill=0;strokeWidth=2;" edge="1" parent="5zPHV9qzRJgmZAfULTGl-1" source="5zPHV9qzRJgmZAfULTGl-4" target="zyFbjTyeilTEmmRpHfqy-16">&#xa;          <mxGeometry relative="1" as="geometry"/>&#xa;        </mxCell>&#xa;        <mxCell id="0Nx5tK7zfX6LpTETbN9F-33" style="edgeStyle=none;rounded=0;orthogonalLoop=1;jettySize=auto;html=1;endArrow=none;endFill=0;strokeWidth=2;" edge="1" parent="5zPHV9qzRJgmZAfULTGl-1" source="5zPHV9qzRJgmZAfULTGl-4" target="zyFbjTyeilTEmmRpHfqy-17">&#xa;          <mxGeometry relative="1" as="geometry"/>&#xa;        </mxCell>&#xa;        <mxCell id="5zPHV9qzRJgmZAfULTGl-4" value="User" style="shape=umlActor;verticalLabelPosition=bottom;labelBackgroundColor=#ffffff;verticalAlign=top;html=1;" parent="5zPHV9qzRJgmZAfULTGl-1" vertex="1">&#xa;          <mxGeometry x="120" y="500" width="30" height="60" as="geometry"/>&#xa;        </mxCell>&#xa;        <mxCell id="0Nx5tK7zfX6LpTETbN9F-16" value="&amp;lt;&amp;lt;include&amp;gt;&amp;gt;" style="edgeStyle=none;rounded=0;orthogonalLoop=1;jettySize=auto;html=1;" edge="1" parent="5zPHV9qzRJgmZAfULTGl-1" source="5zPHV9qzRJgmZAfULTGl-10" target="5zPHV9qzRJgmZAfULTGl-16">&#xa;          <mxGeometry relative="1" as="geometry"/>&#xa;        </mxCell>&#xa;        <mxCell id="5zPHV9qzRJgmZAfULTGl-10" value="Add Restaurant" style="ellipse;whiteSpace=wrap;html=1;fontSize=12;fillColor=#dae8fc;strokeColor=#6c8ebf;" parent="5zPHV9qzRJgmZAfULTGl-1" vertex="1">&#xa;          <mxGeometry x="40" y="140" width="140" height="70" as="geometry"/>&#xa;        </mxCell>&#xa;        <mxCell id="5zPHV9qzRJgmZAfULTGl-11" value="Register" style="ellipse;whiteSpace=wrap;html=1;fontSize=12;fillColor=#dae8fc;strokeColor=#6c8ebf;" parent="5zPHV9qzRJgmZAfULTGl-1" vertex="1">&#xa;          <mxGeometry x="230" y="360" width="140" height="70" as="geometry"/>&#xa;        </mxCell>&#xa;        <mxCell id="5zPHV9qzRJgmZAfULTGl-12" value="Login/Logout" style="ellipse;whiteSpace=wrap;html=1;fontSize=12;fillColor=#dae8fc;strokeColor=#6c8ebf;" parent="5zPHV9qzRJgmZAfULTGl-1" vertex="1">&#xa;          <mxGeometry x="280" y="450" width="140" height="70" as="geometry"/>&#xa;        </mxCell>&#xa;        <mxCell id="5zPHV9qzRJgmZAfULTGl-16" value="View Restaurant" style="ellipse;whiteSpace=wrap;html=1;fontSize=12;fillColor=#dae8fc;strokeColor=#6c8ebf;" parent="5zPHV9qzRJgmZAfULTGl-1" vertex="1">&#xa;          <mxGeometry x="310" y="130" width="140" height="70" as="geometry"/>&#xa;        </mxCell>&#xa;        <mxCell id="0Nx5tK7zfX6LpTETbN9F-2" value="&amp;lt;&amp;lt;extend&amp;gt;&amp;gt;" style="edgeStyle=none;rounded=0;orthogonalLoop=1;jettySize=auto;html=1;dashed=1;" edge="1" parent="5zPHV9qzRJgmZAfULTGl-1" source="5zPHV9qzRJgmZAfULTGl-17" target="5zPHV9qzRJgmZAfULTGl-16">&#xa;          <mxGeometry relative="1" as="geometry"/>&#xa;        </mxCell>&#xa;        <mxCell id="5zPHV9qzRJgmZAfULTGl-17" value="Edit Restaurant" style="ellipse;whiteSpace=wrap;html=1;fontSize=12;fillColor=#d5e8d4;strokeColor=#82b366;" parent="5zPHV9qzRJgmZAfULTGl-1" vertex="1">&#xa;          <mxGeometry x="500" y="10" width="140" height="70" as="geometry"/>&#xa;        </mxCell>&#xa;        <mxCell id="0Nx5tK7zfX6LpTETbN9F-3" value="&amp;lt;&amp;lt;extend&amp;gt;&amp;gt;" style="edgeStyle=none;rounded=0;orthogonalLoop=1;jettySize=auto;html=1;dashed=1;" edge="1" parent="5zPHV9qzRJgmZAfULTGl-1" source="5zPHV9qzRJgmZAfULTGl-22" target="5zPHV9qzRJgmZAfULTGl-16">&#xa;          <mxGeometry relative="1" as="geometry"/>&#xa;        </mxCell>&#xa;        <mxCell id="5zPHV9qzRJgmZAfULTGl-22" value="Delete Restaurant" style="ellipse;whiteSpace=wrap;html=1;fontSize=12;fillColor=#d5e8d4;strokeColor=#82b366;" parent="5zPHV9qzRJgmZAfULTGl-1" vertex="1">&#xa;          <mxGeometry x="560" y="90" width="140" height="70" as="geometry"/>&#xa;        </mxCell>&#xa;        <mxCell id="0Nx5tK7zfX6LpTETbN9F-19" value="&amp;lt;&amp;lt;include&amp;gt;&amp;gt;" style="edgeStyle=none;rounded=0;orthogonalLoop=1;jettySize=auto;html=1;" edge="1" parent="5zPHV9qzRJgmZAfULTGl-1" source="Tm_T-q_GC3cHI-UwzK1D-0" target="Tm_T-q_GC3cHI-UwzK1D-1">&#xa;          <mxGeometry relative="1" as="geometry"/>&#xa;        </mxCell>&#xa;        <mxCell id="Tm_T-q_GC3cHI-UwzK1D-0" value="Browse User&amp;nbsp;" style="ellipse;whiteSpace=wrap;html=1;fontSize=12;fillColor=#dae8fc;strokeColor=#6c8ebf;" parent="5zPHV9qzRJgmZAfULTGl-1" vertex="1">&#xa;          <mxGeometry x="300" y="540" width="140" height="70" as="geometry"/>&#xa;        </mxCell>&#xa;        <mxCell id="0Nx5tK7zfX6LpTETbN9F-20" value="&amp;lt;&amp;lt;include&amp;gt;&amp;gt;" style="edgeStyle=none;rounded=0;orthogonalLoop=1;jettySize=auto;html=1;" edge="1" parent="5zPHV9qzRJgmZAfULTGl-1" source="Tm_T-q_GC3cHI-UwzK1D-1" target="qz7VxkIkBpoKN-4RH5xL-1">&#xa;          <mxGeometry relative="1" as="geometry"/>&#xa;        </mxCell>&#xa;        <mxCell id="Tm_T-q_GC3cHI-UwzK1D-1" value="Find User" style="ellipse;whiteSpace=wrap;html=1;fontSize=12;fillColor=#dae8fc;strokeColor=#6c8ebf;" parent="5zPHV9qzRJgmZAfULTGl-1" vertex="1">&#xa;          <mxGeometry x="470" y="630" width="140" height="70" as="geometry"/>&#xa;        </mxCell>&#xa;        <mxCell id="0Nx5tK7zfX6LpTETbN9F-9" value="&amp;lt;&amp;lt;extend&amp;gt;&amp;gt;" style="edgeStyle=none;rounded=0;orthogonalLoop=1;jettySize=auto;html=1;dashed=1;" edge="1" parent="5zPHV9qzRJgmZAfULTGl-1" source="Tm_T-q_GC3cHI-UwzK1D-3" target="Tm_T-q_GC3cHI-UwzK1D-1">&#xa;          <mxGeometry relative="1" as="geometry"/>&#xa;        </mxCell>&#xa;        <mxCell id="Tm_T-q_GC3cHI-UwzK1D-3" value="Set User Parameter:&lt;br&gt;username" style="ellipse;whiteSpace=wrap;html=1;fontSize=12;fillColor=#d5e8d4;strokeColor=#82b366;" parent="5zPHV9qzRJgmZAfULTGl-1" vertex="1">&#xa;          <mxGeometry x="640" y="490" width="140" height="70" as="geometry"/>&#xa;        </mxCell>&#xa;        <mxCell id="qz7VxkIkBpoKN-4RH5xL-1" value="View User" style="ellipse;whiteSpace=wrap;html=1;fontSize=12;fillColor=#dae8fc;strokeColor=#6c8ebf;" parent="5zPHV9qzRJgmZAfULTGl-1" vertex="1">&#xa;          <mxGeometry x="460" y="480" width="140" height="70" as="geometry"/>&#xa;        </mxCell>&#xa;        <mxCell id="0Nx5tK7zfX6LpTETbN9F-6" value="&amp;lt;&amp;lt;extend&amp;gt;&amp;gt;" style="edgeStyle=none;rounded=0;orthogonalLoop=1;jettySize=auto;html=1;dashed=1;" edge="1" parent="5zPHV9qzRJgmZAfULTGl-1" source="qz7VxkIkBpoKN-4RH5xL-3" target="qz7VxkIkBpoKN-4RH5xL-1">&#xa;          <mxGeometry relative="1" as="geometry"/>&#xa;        </mxCell>&#xa;        <mxCell id="qz7VxkIkBpoKN-4RH5xL-3" value="Follow User" style="ellipse;whiteSpace=wrap;html=1;fontSize=12;fillColor=#d5e8d4;strokeColor=#82b366;" parent="5zPHV9qzRJgmZAfULTGl-1" vertex="1">&#xa;          <mxGeometry x="437" y="340" width="140" height="70" as="geometry"/>&#xa;        </mxCell>&#xa;        <mxCell id="0Nx5tK7zfX6LpTETbN9F-7" value="&amp;lt;&amp;lt;extend&amp;gt;&amp;gt;" style="edgeStyle=none;rounded=0;orthogonalLoop=1;jettySize=auto;html=1;dashed=1;" edge="1" parent="5zPHV9qzRJgmZAfULTGl-1" source="qz7VxkIkBpoKN-4RH5xL-4" target="qz7VxkIkBpoKN-4RH5xL-1">&#xa;          <mxGeometry relative="1" as="geometry"/>&#xa;        </mxCell>&#xa;        <mxCell id="qz7VxkIkBpoKN-4RH5xL-4" value="Unfollow User" style="ellipse;whiteSpace=wrap;html=1;fontSize=12;fillColor=#d5e8d4;strokeColor=#82b366;" parent="5zPHV9qzRJgmZAfULTGl-1" vertex="1">&#xa;          <mxGeometry x="610" y="360" width="140" height="70" as="geometry"/>&#xa;        </mxCell>&#xa;        <mxCell id="0Nx5tK7zfX6LpTETbN9F-17" value="&amp;lt;&amp;lt;include&amp;gt;&amp;gt;" style="edgeStyle=none;rounded=0;orthogonalLoop=1;jettySize=auto;html=1;" edge="1" parent="5zPHV9qzRJgmZAfULTGl-1" source="qz7VxkIkBpoKN-4RH5xL-10" target="qz7VxkIkBpoKN-4RH5xL-11">&#xa;          <mxGeometry relative="1" as="geometry"/>&#xa;        </mxCell>&#xa;        <mxCell id="qz7VxkIkBpoKN-4RH5xL-10" value="Browse Restaurant" style="ellipse;whiteSpace=wrap;html=1;fontSize=12;fillColor=#dae8fc;strokeColor=#6c8ebf;" parent="5zPHV9qzRJgmZAfULTGl-1" vertex="1">&#xa;          <mxGeometry x="160" y="190" width="140" height="70" as="geometry"/>&#xa;        </mxCell>&#xa;        <mxCell id="0Nx5tK7zfX6LpTETbN9F-18" value="&amp;lt;&amp;lt;include&amp;gt;&amp;gt;" style="edgeStyle=none;rounded=0;orthogonalLoop=1;jettySize=auto;html=1;" edge="1" parent="5zPHV9qzRJgmZAfULTGl-1" source="qz7VxkIkBpoKN-4RH5xL-11" target="5zPHV9qzRJgmZAfULTGl-16">&#xa;          <mxGeometry relative="1" as="geometry"/>&#xa;        </mxCell>&#xa;        <mxCell id="qz7VxkIkBpoKN-4RH5xL-11" value="Find Restaurant" style="ellipse;whiteSpace=wrap;html=1;fontSize=12;fillColor=#dae8fc;strokeColor=#6c8ebf;" parent="5zPHV9qzRJgmZAfULTGl-1" vertex="1">&#xa;          <mxGeometry x="320" y="280" width="140" height="70" as="geometry"/>&#xa;        </mxCell>&#xa;        <mxCell id="0Nx5tK7zfX6LpTETbN9F-5" value="&amp;lt;&amp;lt;extend&amp;gt;&amp;gt;" style="edgeStyle=none;rounded=0;orthogonalLoop=1;jettySize=auto;html=1;dashed=1;" edge="1" parent="5zPHV9qzRJgmZAfULTGl-1" source="qz7VxkIkBpoKN-4RH5xL-16" target="qz7VxkIkBpoKN-4RH5xL-11">&#xa;          <mxGeometry relative="1" as="geometry"/>&#xa;        </mxCell>&#xa;        <mxCell id="qz7VxkIkBpoKN-4RH5xL-16" value="Set Restaurant Parameter:&lt;br&gt;name" style="ellipse;whiteSpace=wrap;html=1;fontSize=12;fillColor=#d5e8d4;strokeColor=#82b366;" parent="5zPHV9qzRJgmZAfULTGl-1" vertex="1">&#xa;          <mxGeometry x="577" y="239.53999999999996" width="160" height="70" as="geometry"/>&#xa;        </mxCell>&#xa;        <mxCell id="0Nx5tK7zfX6LpTETbN9F-4" value="&amp;lt;&amp;lt;extend&amp;gt;&amp;gt;" style="edgeStyle=none;rounded=0;orthogonalLoop=1;jettySize=auto;html=1;dashed=1;" edge="1" parent="5zPHV9qzRJgmZAfULTGl-1" source="qz7VxkIkBpoKN-4RH5xL-18" target="qz7VxkIkBpoKN-4RH5xL-11">&#xa;          <mxGeometry relative="1" as="geometry"/>&#xa;        </mxCell>&#xa;        <mxCell id="qz7VxkIkBpoKN-4RH5xL-18" value="Set Recommendation Parameter" style="ellipse;whiteSpace=wrap;html=1;fontSize=12;fillColor=#d5e8d4;strokeColor=#82b366;" parent="5zPHV9qzRJgmZAfULTGl-1" vertex="1">&#xa;          <mxGeometry x="470.0799999999999" y="170" width="169.92" height="69.54" as="geometry"/>&#xa;        </mxCell>&#xa;        <mxCell id="0Nx5tK7zfX6LpTETbN9F-1" value="&amp;lt;&amp;lt;extend&amp;gt;&amp;gt;" style="edgeStyle=none;rounded=0;orthogonalLoop=1;jettySize=auto;html=1;dashed=1;" edge="1" parent="5zPHV9qzRJgmZAfULTGl-1" source="mLJORztHTTyIW33B8l6V-0" target="5zPHV9qzRJgmZAfULTGl-16">&#xa;          <mxGeometry relative="1" as="geometry"/>&#xa;        </mxCell>&#xa;        <mxCell id="mLJORztHTTyIW33B8l6V-0" value="Put/Remove like to Restaurant" style="ellipse;whiteSpace=wrap;html=1;fontSize=12;fillColor=#d5e8d4;strokeColor=#82b366;" parent="5zPHV9qzRJgmZAfULTGl-1" vertex="1">&#xa;          <mxGeometry x="330" width="140" height="70" as="geometry"/>&#xa;        </mxCell>&#xa;        <mxCell id="0Nx5tK7zfX6LpTETbN9F-8" value="&amp;lt;&amp;lt;extend&amp;gt;&amp;gt;" style="edgeStyle=none;rounded=0;orthogonalLoop=1;jettySize=auto;html=1;dashed=1;" edge="1" parent="5zPHV9qzRJgmZAfULTGl-1" source="zyFbjTyeilTEmmRpHfqy-1" target="Tm_T-q_GC3cHI-UwzK1D-1">&#xa;          <mxGeometry relative="1" as="geometry"/>&#xa;        </mxCell>&#xa;        <mxCell id="zyFbjTyeilTEmmRpHfqy-1" value="Set Recommendation: Parameter" style="ellipse;whiteSpace=wrap;html=1;fontSize=12;fillColor=#d5e8d4;strokeColor=#82b366;" parent="5zPHV9qzRJgmZAfULTGl-1" vertex="1">&#xa;          <mxGeometry x="657" y="710" width="160" height="70" as="geometry"/>&#xa;        </mxCell>&#xa;        <mxCell id="0Nx5tK7zfX6LpTETbN9F-34" style="edgeStyle=none;rounded=0;orthogonalLoop=1;jettySize=auto;html=1;endArrow=none;endFill=0;strokeWidth=2;" edge="1" parent="5zPHV9qzRJgmZAfULTGl-1" source="zyFbjTyeilTEmmRpHfqy-2" target="zyFbjTyeilTEmmRpHfqy-6">&#xa;          <mxGeometry relative="1" as="geometry"/>&#xa;        </mxCell>&#xa;        <mxCell id="0Nx5tK7zfX6LpTETbN9F-35" style="edgeStyle=none;rounded=0;orthogonalLoop=1;jettySize=auto;html=1;endArrow=none;endFill=0;strokeWidth=2;" edge="1" parent="5zPHV9qzRJgmZAfULTGl-1" source="zyFbjTyeilTEmmRpHfqy-2" target="zyFbjTyeilTEmmRpHfqy-7">&#xa;          <mxGeometry relative="1" as="geometry"/>&#xa;        </mxCell>&#xa;        <mxCell id="0Nx5tK7zfX6LpTETbN9F-38" style="edgeStyle=none;rounded=0;orthogonalLoop=1;jettySize=auto;html=1;endArrow=block;endFill=0;endSize=12;strokeWidth=1;" edge="1" parent="5zPHV9qzRJgmZAfULTGl-1" source="zyFbjTyeilTEmmRpHfqy-2" target="5zPHV9qzRJgmZAfULTGl-4">&#xa;          <mxGeometry relative="1" as="geometry"/>&#xa;        </mxCell>&#xa;        <mxCell id="zyFbjTyeilTEmmRpHfqy-2" value="Admin" style="shape=umlActor;verticalLabelPosition=bottom;labelBackgroundColor=#ffffff;verticalAlign=top;html=1;" parent="5zPHV9qzRJgmZAfULTGl-1" vertex="1">&#xa;          <mxGeometry x="30" y="650" width="30" height="55" as="geometry"/>&#xa;        </mxCell>&#xa;        <mxCell id="0Nx5tK7zfX6LpTETbN9F-23" value="&amp;lt;&amp;lt;include&amp;gt;&amp;gt;" style="edgeStyle=none;rounded=0;orthogonalLoop=1;jettySize=auto;html=1;" edge="1" parent="5zPHV9qzRJgmZAfULTGl-1" source="zyFbjTyeilTEmmRpHfqy-6" target="zyFbjTyeilTEmmRpHfqy-11">&#xa;          <mxGeometry relative="1" as="geometry"/>&#xa;        </mxCell>&#xa;        <mxCell id="zyFbjTyeilTEmmRpHfqy-6" value="Add City" style="ellipse;whiteSpace=wrap;html=1;fontSize=12;fillColor=#dae8fc;strokeColor=#6c8ebf;" parent="5zPHV9qzRJgmZAfULTGl-1" vertex="1">&#xa;          <mxGeometry y="1029" width="140" height="70" as="geometry"/>&#xa;        </mxCell>&#xa;        <mxCell id="0Nx5tK7zfX6LpTETbN9F-26" value="&amp;lt;&amp;lt;include&amp;gt;&amp;gt;" style="edgeStyle=none;rounded=0;orthogonalLoop=1;jettySize=auto;html=1;" edge="1" parent="5zPHV9qzRJgmZAfULTGl-1" source="zyFbjTyeilTEmmRpHfqy-7" target="zyFbjTyeilTEmmRpHfqy-9">&#xa;          <mxGeometry relative="1" as="geometry"/>&#xa;        </mxCell>&#xa;        <mxCell id="zyFbjTyeilTEmmRpHfqy-7" value="Add Cuisine" style="ellipse;whiteSpace=wrap;html=1;fontSize=12;fillColor=#dae8fc;strokeColor=#6c8ebf;" parent="5zPHV9qzRJgmZAfULTGl-1" vertex="1">&#xa;          <mxGeometry x="90" y="920" width="140" height="70" as="geometry"/>&#xa;        </mxCell>&#xa;        <mxCell id="zyFbjTyeilTEmmRpHfqy-9" value="View Cuisine" style="ellipse;whiteSpace=wrap;html=1;fontSize=12;fillColor=#dae8fc;strokeColor=#6c8ebf;" parent="5zPHV9qzRJgmZAfULTGl-1" vertex="1">&#xa;          <mxGeometry x="359.9999999999999" y="880" width="140" height="70" as="geometry"/>&#xa;        </mxCell>&#xa;        <mxCell id="zyFbjTyeilTEmmRpHfqy-11" value="View City" style="ellipse;whiteSpace=wrap;html=1;fontSize=12;fillColor=#dae8fc;strokeColor=#6c8ebf;" parent="5zPHV9qzRJgmZAfULTGl-1" vertex="1">&#xa;          <mxGeometry x="460" y="1099" width="140" height="70" as="geometry"/>&#xa;        </mxCell>&#xa;        <mxCell id="0Nx5tK7zfX6LpTETbN9F-14" value="&amp;lt;&amp;lt;extend&amp;gt;&amp;gt;" style="edgeStyle=none;rounded=0;orthogonalLoop=1;jettySize=auto;html=1;dashed=1;" edge="1" parent="5zPHV9qzRJgmZAfULTGl-1" source="zyFbjTyeilTEmmRpHfqy-13" target="zyFbjTyeilTEmmRpHfqy-9">&#xa;          <mxGeometry relative="1" as="geometry"/>&#xa;        </mxCell>&#xa;        <mxCell id="zyFbjTyeilTEmmRpHfqy-13" value="Delete Cuisine" style="ellipse;whiteSpace=wrap;html=1;fontSize=12;fillColor=#d5e8d4;strokeColor=#82b366;" parent="5zPHV9qzRJgmZAfULTGl-1" vertex="1">&#xa;          <mxGeometry x="210" y="990" width="140" height="70" as="geometry"/>&#xa;        </mxCell>&#xa;        <mxCell id="0Nx5tK7zfX6LpTETbN9F-12" value="&amp;lt;&amp;lt;extend&amp;gt;&amp;gt;" style="edgeStyle=none;rounded=0;orthogonalLoop=1;jettySize=auto;html=1;dashed=1;" edge="1" parent="5zPHV9qzRJgmZAfULTGl-1" source="zyFbjTyeilTEmmRpHfqy-15" target="zyFbjTyeilTEmmRpHfqy-11">&#xa;          <mxGeometry relative="1" as="geometry"/>&#xa;        </mxCell>&#xa;        <mxCell id="zyFbjTyeilTEmmRpHfqy-15" value="Delete City" style="ellipse;whiteSpace=wrap;html=1;fontSize=12;fillColor=#d5e8d4;strokeColor=#82b366;" parent="5zPHV9qzRJgmZAfULTGl-1" vertex="1">&#xa;          <mxGeometry x="577" y="980" width="140" height="70" as="geometry"/>&#xa;        </mxCell>&#xa;        <mxCell id="0Nx5tK7zfX6LpTETbN9F-21" value="&amp;lt;&amp;lt;include&amp;gt;&amp;gt;" style="edgeStyle=none;rounded=0;orthogonalLoop=1;jettySize=auto;html=1;" edge="1" parent="5zPHV9qzRJgmZAfULTGl-1" source="zyFbjTyeilTEmmRpHfqy-16" target="zyFbjTyeilTEmmRpHfqy-21">&#xa;          <mxGeometry relative="1" as="geometry"/>&#xa;        </mxCell>&#xa;        <mxCell id="zyFbjTyeilTEmmRpHfqy-16" value="Browse City" style="ellipse;whiteSpace=wrap;html=1;fontSize=12;fillColor=#dae8fc;strokeColor=#6c8ebf;" parent="5zPHV9qzRJgmZAfULTGl-1" vertex="1">&#xa;          <mxGeometry x="200" y="610" width="140" height="70" as="geometry"/>&#xa;        </mxCell>&#xa;        <mxCell id="0Nx5tK7zfX6LpTETbN9F-24" value="&amp;lt;&amp;lt;include&amp;gt;&amp;gt;" style="edgeStyle=none;rounded=0;orthogonalLoop=1;jettySize=auto;html=1;" edge="1" parent="5zPHV9qzRJgmZAfULTGl-1" source="zyFbjTyeilTEmmRpHfqy-17" target="zyFbjTyeilTEmmRpHfqy-27">&#xa;          <mxGeometry relative="1" as="geometry"/>&#xa;        </mxCell>&#xa;        <mxCell id="zyFbjTyeilTEmmRpHfqy-17" value="Browse Cuisine" style="ellipse;whiteSpace=wrap;html=1;fontSize=12;fillColor=#dae8fc;strokeColor=#6c8ebf;" parent="5zPHV9qzRJgmZAfULTGl-1" vertex="1">&#xa;          <mxGeometry x="90" y="680" width="140" height="70" as="geometry"/>&#xa;        </mxCell>&#xa;        <mxCell id="0Nx5tK7zfX6LpTETbN9F-22" value="&amp;lt;&amp;lt;include&amp;gt;&amp;gt;" style="edgeStyle=none;rounded=0;orthogonalLoop=1;jettySize=auto;html=1;" edge="1" parent="5zPHV9qzRJgmZAfULTGl-1" source="zyFbjTyeilTEmmRpHfqy-21" target="zyFbjTyeilTEmmRpHfqy-11">&#xa;          <mxGeometry relative="1" as="geometry"/>&#xa;        </mxCell>&#xa;        <mxCell id="zyFbjTyeilTEmmRpHfqy-21" value="Find City" style="ellipse;whiteSpace=wrap;html=1;fontSize=12;fillColor=#dae8fc;strokeColor=#6c8ebf;" parent="5zPHV9qzRJgmZAfULTGl-1" vertex="1">&#xa;          <mxGeometry x="480" y="740" width="140" height="70" as="geometry"/>&#xa;        </mxCell>&#xa;        <mxCell id="0Nx5tK7zfX6LpTETbN9F-10" value="&amp;lt;&amp;lt;extend&amp;gt;&amp;gt;" style="edgeStyle=none;rounded=0;orthogonalLoop=1;jettySize=auto;html=1;dashed=1;" edge="1" parent="5zPHV9qzRJgmZAfULTGl-1" source="zyFbjTyeilTEmmRpHfqy-23" target="zyFbjTyeilTEmmRpHfqy-21">&#xa;          <mxGeometry relative="1" as="geometry"/>&#xa;        </mxCell>&#xa;        <mxCell id="zyFbjTyeilTEmmRpHfqy-23" value="Set Location Parameter:&lt;br&gt;name" style="ellipse;whiteSpace=wrap;html=1;fontSize=12;fillColor=#d5e8d4;strokeColor=#82b366;" parent="5zPHV9qzRJgmZAfULTGl-1" vertex="1">&#xa;          <mxGeometry x="610" y="870" width="160" height="70" as="geometry"/>&#xa;        </mxCell>&#xa;        <mxCell id="0Nx5tK7zfX6LpTETbN9F-25" value="&amp;lt;&amp;lt;include&amp;gt;&amp;gt;" style="edgeStyle=none;rounded=0;orthogonalLoop=1;jettySize=auto;html=1;" edge="1" parent="5zPHV9qzRJgmZAfULTGl-1" source="zyFbjTyeilTEmmRpHfqy-27" target="zyFbjTyeilTEmmRpHfqy-9">&#xa;          <mxGeometry relative="1" as="geometry"/>&#xa;        </mxCell>&#xa;        <mxCell id="zyFbjTyeilTEmmRpHfqy-27" value="Find Cuisine" style="ellipse;whiteSpace=wrap;html=1;fontSize=12;fillColor=#dae8fc;strokeColor=#6c8ebf;" parent="5zPHV9qzRJgmZAfULTGl-1" vertex="1">&#xa;          <mxGeometry x="320" y="750" width="140" height="70" as="geometry"/>&#xa;        </mxCell>&#xa;        <mxCell id="0Nx5tK7zfX6LpTETbN9F-13" value="&amp;lt;&amp;lt;extend&amp;gt;&amp;gt;" style="edgeStyle=none;rounded=0;orthogonalLoop=1;jettySize=auto;html=1;dashed=1;" edge="1" parent="5zPHV9qzRJgmZAfULTGl-1" source="zyFbjTyeilTEmmRpHfqy-29" target="zyFbjTyeilTEmmRpHfqy-27">&#xa;          <mxGeometry relative="1" as="geometry"/>&#xa;        </mxCell>&#xa;        <mxCell id="zyFbjTyeilTEmmRpHfqy-29" value="Set Cuisine Parameter:&lt;br&gt;name" style="ellipse;whiteSpace=wrap;html=1;fontSize=12;fillColor=#d5e8d4;strokeColor=#82b366;" parent="5zPHV9qzRJgmZAfULTGl-1" vertex="1">&#xa;          <mxGeometry x="150" y="840" width="160" height="70" as="geometry"/>&#xa;        </mxCell>&#xa;        <mxCell id="0Nx5tK7zfX6LpTETbN9F-15" value="&amp;lt;&amp;lt;extend&amp;gt;&amp;gt;" style="edgeStyle=none;rounded=0;orthogonalLoop=1;jettySize=auto;html=1;dashed=1;" edge="1" parent="5zPHV9qzRJgmZAfULTGl-1" source="Bdt4znpEQ--RUwzzG7ea-1" target="zyFbjTyeilTEmmRpHfqy-9">&#xa;          <mxGeometry relative="1" as="geometry"/>&#xa;        </mxCell>&#xa;        <mxCell id="Bdt4znpEQ--RUwzzG7ea-1" value="Put Like/Remove Like" style="ellipse;whiteSpace=wrap;html=1;fontSize=12;fillColor=#d5e8d4;strokeColor=#82b366;" parent="5zPHV9qzRJgmZAfULTGl-1" vertex="1">&#xa;          <mxGeometry x="380" y="1010" width="140" height="70" as="geometry"/>&#xa;        </mxCell>&#xa;        <mxCell id="0Nx5tK7zfX6LpTETbN9F-11" value="&amp;lt;&amp;lt;extend&amp;gt;&amp;gt;" style="edgeStyle=none;rounded=0;orthogonalLoop=1;jettySize=auto;html=1;dashed=1;" edge="1" parent="5zPHV9qzRJgmZAfULTGl-1" source="Bdt4znpEQ--RUwzzG7ea-3" target="zyFbjTyeilTEmmRpHfqy-11">&#xa;          <mxGeometry relative="1" as="geometry"/>&#xa;        </mxCell>&#xa;        <mxCell id="Bdt4znpEQ--RUwzzG7ea-3" value="Change User City" style="ellipse;whiteSpace=wrap;html=1;fontSize=12;fillColor=#d5e8d4;strokeColor=#82b366;" parent="5zPHV9qzRJgmZAfULTGl-1" vertex="1">&#xa;          <mxGeometry x="677" y="1040" width="140" height="70" as="geometry"/>&#xa;        </mxCell>&#xa;        <mxCell id="0Nx5tK7zfX6LpTETbN9F-0" value="&amp;lt;&amp;lt;extend&amp;gt;&amp;gt;" style="rounded=0;orthogonalLoop=1;jettySize=auto;html=1;dashed=1;" edge="1" parent="5zPHV9qzRJgmZAfULTGl-1" source="Bdt4znpEQ--RUwzzG7ea-7" target="5zPHV9qzRJgmZAfULTGl-16">&#xa;          <mxGeometry relative="1" as="geometry"/>&#xa;        </mxCell>&#xa;        <mxCell id="Bdt4znpEQ--RUwzzG7ea-7" value="View Statistics" style="ellipse;whiteSpace=wrap;html=1;fontSize=12;fillColor=#d5e8d4;strokeColor=#82b366;" parent="5zPHV9qzRJgmZAfULTGl-1" vertex="1">&#xa;          <mxGeometry x="170" y="10" width="140" height="70" as="geometry"/>&#xa;        </mxCell>&#xa;      </root>&#xa;    </mxGraphModel>&#xa;  </diagram><diagram id="7ftJuUn66wEg18gUvFLb" name="Page-3">&#xa;    <mxGraphModel dx="1414" dy="758" grid="1" gridSize="10" guides="1" tooltips="1" connect="1" arrows="1" fold="1" page="1" pageScale="1" pageWidth="827" pageHeight="1169" math="0" shadow="0">&#xa;      <root>&#xa;        <mxCell id="-AUpRjk7yi3cYHmDnY5o-0"/>&#xa;        <mxCell id="-AUpRjk7yi3cYHmDnY5o-1" parent="-AUpRjk7yi3cYHmDnY5o-0"/>&#xa;        <mxCell id="-AUpRjk7yi3cYHmDnY5o-2" value="Network Layer" style="rounded=1;whiteSpace=wrap;html=1;imageAspect=1;fillColor=#fff2cc;strokeColor=#d6b656;align=left;" parent="-AUpRjk7yi3cYHmDnY5o-1" vertex="1">&#xa;          <mxGeometry x="30" y="160" width="210" height="40" as="geometry"/>&#xa;        </mxCell>&#xa;        <mxCell id="-AUpRjk7yi3cYHmDnY5o-4" value="Presentation Layer (GUI)" style="shape=corner;whiteSpace=wrap;rounded=1;shadow=0;glass=0;comic=0;startSize=20;fillColor=#f8cecc;dx=210;dy=80;strokeColor=#b85450;verticalAlign=top;labelPosition=center;verticalLabelPosition=middle;align=center;horizontal=1;html=1;spacingTop=10;" parent="-AUpRjk7yi3cYHmDnY5o-1" vertex="1">&#xa;          <mxGeometry x="30" y="120" width="210" height="40" as="geometry"/>&#xa;        </mxCell>&#xa;        <mxCell id="-AUpRjk7yi3cYHmDnY5o-5" value="Common Library" style="rounded=1;whiteSpace=wrap;html=1;fillColor=#d5e8d4;strokeColor=#82b366;" parent="-AUpRjk7yi3cYHmDnY5o-1" vertex="1">&#xa;          <mxGeometry x="140" y="165" width="95" height="30" as="geometry"/>&#xa;        </mxCell>&#xa;        <mxCell id="-AUpRjk7yi3cYHmDnY5o-8" style="edgeStyle=orthogonalEdgeStyle;rounded=0;orthogonalLoop=1;jettySize=auto;html=1;startArrow=classic;startFill=1;startSize=6;endArrow=classic;endFill=1;" parent="-AUpRjk7yi3cYHmDnY5o-1" source="-AUpRjk7yi3cYHmDnY5o-9" target="-AUpRjk7yi3cYHmDnY5o-11" edge="1">&#xa;          <mxGeometry relative="1" as="geometry"/>&#xa;        </mxCell>&#xa;        <mxCell id="-AUpRjk7yi3cYHmDnY5o-9" value="Network" style="ellipse;shape=cloud;whiteSpace=wrap;html=1;rounded=1;shadow=0;glass=0;comic=0;startSize=20;fillColor=#ffffff;" parent="-AUpRjk7yi3cYHmDnY5o-1" vertex="1">&#xa;          <mxGeometry x="75" y="260" width="120" height="80" as="geometry"/>&#xa;        </mxCell>&#xa;        <mxCell id="-AUpRjk7yi3cYHmDnY5o-10" style="edgeStyle=orthogonalEdgeStyle;rounded=0;orthogonalLoop=1;jettySize=auto;html=1;startSize=6;endArrow=classic;endFill=1;startArrow=classic;startFill=1;" parent="-AUpRjk7yi3cYHmDnY5o-1" source="-AUpRjk7yi3cYHmDnY5o-2" target="-AUpRjk7yi3cYHmDnY5o-9" edge="1">&#xa;          <mxGeometry relative="1" as="geometry"/>&#xa;        </mxCell>&#xa;        <mxCell id="-AUpRjk7yi3cYHmDnY5o-11" value="Network Layer" style="rounded=1;whiteSpace=wrap;html=1;imageAspect=1;fillColor=#fff2cc;strokeColor=#d6b656;align=left;" parent="-AUpRjk7yi3cYHmDnY5o-1" vertex="1">&#xa;          <mxGeometry x="30" y="400" width="210" height="40" as="geometry"/>&#xa;        </mxCell>&#xa;        <mxCell id="-AUpRjk7yi3cYHmDnY5o-12" value="Data Access Layer" style="rounded=1;whiteSpace=wrap;html=1;imageAspect=1;fillColor=#dae8fc;strokeColor=#6c8ebf;" parent="-AUpRjk7yi3cYHmDnY5o-1" vertex="1">&#xa;          <mxGeometry x="30" y="480" width="210" height="40" as="geometry"/>&#xa;        </mxCell>&#xa;        <mxCell id="-AUpRjk7yi3cYHmDnY5o-14" value="Business Logic" style="shape=corner;whiteSpace=wrap;rounded=1;shadow=0;glass=0;comic=0;startSize=20;fillColor=#ffe6cc;dx=200;dy=80;strokeColor=#d79b00;verticalAlign=top;labelPosition=center;verticalLabelPosition=middle;align=left;horizontal=1;html=1;spacingTop=10;" parent="-AUpRjk7yi3cYHmDnY5o-1" vertex="1">&#xa;          <mxGeometry x="30" y="440" width="210" height="40" as="geometry"/>&#xa;        </mxCell>&#xa;        <mxCell id="-AUpRjk7yi3cYHmDnY5o-16" value="Common Library" style="rounded=1;whiteSpace=wrap;html=1;fillColor=#d5e8d4;strokeColor=#82b366;" parent="-AUpRjk7yi3cYHmDnY5o-1" vertex="1">&#xa;          <mxGeometry x="140" y="405" width="95" height="30" as="geometry"/>&#xa;        </mxCell>&#xa;        <mxCell id="-AUpRjk7yi3cYHmDnY5o-17" value="Database" style="swimlane;html=1;startSize=20;horizontal=0;childLayout=treeLayout;horizontalTree=1;resizable=1;containerType=tree;rounded=1;shadow=0;glass=0;comic=0;fillColor=#ffffff;arcSize=37;collapsible=0;" parent="-AUpRjk7yi3cYHmDnY5o-1" vertex="1">&#xa;          <mxGeometry x="35" y="720" width="200" height="140" as="geometry"/>&#xa;        </mxCell>&#xa;        <mxCell id="-AUpRjk7yi3cYHmDnY5o-18" value="Neo4J" style="shape=datastore;whiteSpace=wrap;html=1;rounded=1;shadow=0;glass=0;comic=0;startSize=20;fillColor=#dae8fc;strokeColor=#6c8ebf;" parent="-AUpRjk7yi3cYHmDnY5o-17" vertex="1">&#xa;          <mxGeometry x="60" y="11" width="100" height="118" as="geometry"/>&#xa;        </mxCell>&#xa;        <mxCell id="-AUpRjk7yi3cYHmDnY5o-19" value="" style="image;html=1;labelBackgroundColor=#ffffff;image=img/lib/clip_art/people/Worker_Woman_128x128.png;rounded=1;shadow=0;glass=0;comic=0;startSize=20;fillColor=#ffffff;" parent="-AUpRjk7yi3cYHmDnY5o-1" vertex="1">&#xa;          <mxGeometry x="90" y="30" width="80" height="80" as="geometry"/>&#xa;        </mxCell>&#xa;        <mxCell id="-AUpRjk7yi3cYHmDnY5o-20" style="edgeStyle=orthogonalEdgeStyle;rounded=0;orthogonalLoop=1;jettySize=auto;html=1;startArrow=classic;startFill=1;startSize=6;endArrow=classic;endFill=1;" parent="-AUpRjk7yi3cYHmDnY5o-1" source="-AUpRjk7yi3cYHmDnY5o-21" target="-AUpRjk7yi3cYHmDnY5o-17" edge="1">&#xa;          <mxGeometry relative="1" as="geometry"/>&#xa;        </mxCell>&#xa;        <mxCell id="-AUpRjk7yi3cYHmDnY5o-21" value="Network" style="ellipse;shape=cloud;whiteSpace=wrap;html=1;rounded=1;shadow=0;glass=0;comic=0;startSize=20;fillColor=#ffffff;" parent="-AUpRjk7yi3cYHmDnY5o-1" vertex="1">&#xa;          <mxGeometry x="75" y="585" width="120" height="80" as="geometry"/>&#xa;        </mxCell>&#xa;        <mxCell id="-AUpRjk7yi3cYHmDnY5o-22" style="edgeStyle=orthogonalEdgeStyle;rounded=0;orthogonalLoop=1;jettySize=auto;html=1;startArrow=classic;startFill=1;startSize=6;endArrow=classic;endFill=1;" parent="-AUpRjk7yi3cYHmDnY5o-1" source="-AUpRjk7yi3cYHmDnY5o-12" target="-AUpRjk7yi3cYHmDnY5o-21" edge="1">&#xa;          <mxGeometry relative="1" as="geometry"/>&#xa;        </mxCell>&#xa;      </root>&#xa;    </mxGraphModel>&#xa;  </diagram></mxfile>